<svg height="300px" width="300px" fill="#FFFFFF" xmlns="http://www.w3.org/2000/svg" data-name="Layer 1" viewBox="0 0 100 100" x="0px" y="0px"><title>Artboard 13</title><path d="M45.07,58.81H62.55a6.56,6.56,0,1,1,0,13.12H49a2.17,2.17,0,1,0,0,4.34H64.36a7.73,7.73,0,0,0,5.78-2.59l16.54-18.9a6.81,6.81,0,0,1,10.22,9l-20.66,24A16.21,16.21,0,0,1,64,93.38H31.78L26.16,99,1.42,78.72l14.21-14A27.37,27.37,0,0,1,45.07,58.81Zm-1.28-31a6,6,0,0,0-1.17.34,5,5,0,0,0-1,.56,4.08,4.08,0,0,0-.82.77,4,4,0,0,0-.7,1.32,3.73,3.73,0,0,0-.15,1.4,4,4,0,0,0,.37,1.38,4.78,4.78,0,0,0,.86,1.26L56,50.52a4.24,4.24,0,0,0,.77.64,5.05,5.05,0,0,0,.93.48,5.71,5.71,0,0,0,1,.3,6.07,6.07,0,0,0,2.22,0,5.71,5.71,0,0,0,1-.3,5.06,5.06,0,0,0,.93-.48,4.26,4.26,0,0,0,.77-.64L78.57,34.82a5.12,5.12,0,0,0,.48-.58,4.55,4.55,0,0,0,.37-.63,4.17,4.17,0,0,0,.25-.66,4,4,0,0,0,.13-.69,3.85,3.85,0,0,0,0-.53,3.76,3.76,0,0,0-.06-.53,3.66,3.66,0,0,0-.13-.51,3.6,3.6,0,0,0-.21-.49,4.08,4.08,0,0,0-.74-1,4.56,4.56,0,0,0-1-.79,5.23,5.23,0,0,0-1.28-.5,5.92,5.92,0,0,0-1.45-.18h-6.2l.95-21.41a4.94,4.94,0,0,0-.33-2,5,5,0,0,0-1.09-1.68,5.19,5.19,0,0,0-1.68-1.15A5.38,5.38,0,0,0,64.45,1H55.28a5.38,5.38,0,0,0-2.11.42,5.19,5.19,0,0,0-1.68,1.15A5,5,0,0,0,50.4,4.25a4.94,4.94,0,0,0-.33,2L51,27.68H45A6.91,6.91,0,0,0,43.78,27.8Z"/></svg>